<mxfile host="drawio-plugin" modified="2024-01-26T07:44:27.708Z" agent="5.0 (Windows NT 6.2; Win64; x64) AppleWebKit/537.36 (KHTML, like Gecko) Chrome/104.0.5112.102 Safari/537.36" version="20.5.3" etag="1aZ3PFX-hEvkABSQxddQ" type="embed"><diagram id="ajtBCtTv1dVO-f0QK_Ge" name="Page-1"><mxGraphModel dx="1038" dy="563" grid="0" gridSize="10" guides="1" tooltips="1" connect="1" arrows="1" fold="1" page="0" pageScale="1" pageWidth="850" pageHeight="1100" math="0" shadow="0"><root><mxCell id="0"/><mxCell id="1" parent="0"/><mxCell id="2" value="&lt;b&gt;start programm&lt;/b&gt;" style="ellipse;whiteSpace=wrap;html=1;aspect=fixed;fillColor=#008a00;fontColor=#ffffff;strokeColor=#005700;" vertex="1" parent="1"><mxGeometry x="-13" y="27" width="64" height="64" as="geometry"/></mxCell><mxCell id="3" value="finish programm" style="ellipse;whiteSpace=wrap;html=1;aspect=fixed;fillColor=#a20025;fontColor=#ffffff;strokeColor=#6F0000;" vertex="1" parent="1"><mxGeometry x="309" y="206" width="70" height="70" as="geometry"/></mxCell><mxCell id="4" value="&lt;b&gt;&amp;nbsp; &amp;nbsp; &amp;nbsp; &amp;nbsp; filling array&amp;nbsp; &amp;nbsp; &amp;nbsp; &amp;nbsp; &amp;nbsp; with integer&lt;/b&gt;" style="rounded=1;whiteSpace=wrap;html=1;fillColor=#4D4D4D;" vertex="1" parent="1"><mxGeometry x="93" y="40" width="128" height="38" as="geometry"/></mxCell><mxCell id="6" value="" style="endArrow=classic;html=1;rounded=0;exitX=1;exitY=0.5;exitDx=0;exitDy=0;entryX=0;entryY=0.5;entryDx=0;entryDy=0;" edge="1" parent="1" source="2" target="4"><mxGeometry width="50" height="50" relative="1" as="geometry"><mxPoint x="212" y="294" as="sourcePoint"/><mxPoint x="262" y="244" as="targetPoint"/></mxGeometry></mxCell><mxCell id="7" value="&lt;b&gt;calling method bucketSort(array,min,max)&lt;/b&gt;" style="rounded=1;whiteSpace=wrap;html=1;fillColor=#4D4D4D;" vertex="1" parent="1"><mxGeometry x="255" y="40" width="156" height="42" as="geometry"/></mxCell><mxCell id="9" value="" style="endArrow=classic;html=1;rounded=0;exitX=1;exitY=0.5;exitDx=0;exitDy=0;entryX=0;entryY=0.5;entryDx=0;entryDy=0;" edge="1" parent="1" source="4" target="7"><mxGeometry width="50" height="50" relative="1" as="geometry"><mxPoint x="212" y="287" as="sourcePoint"/><mxPoint x="262" y="237" as="targetPoint"/></mxGeometry></mxCell><mxCell id="10" value="checking how much buckets we have max-min) buckSize+1" style="rounded=1;whiteSpace=wrap;html=1;fillColor=#4D4D4D;" vertex="1" parent="1"><mxGeometry x="-32" y="133" width="120" height="48" as="geometry"/></mxCell><mxCell id="11" value="" style="endArrow=classic;html=1;rounded=0;entryX=1;entryY=0;entryDx=0;entryDy=0;exitX=0;exitY=0.75;exitDx=0;exitDy=0;" edge="1" parent="1" source="7" target="10"><mxGeometry width="50" height="50" relative="1" as="geometry"><mxPoint x="212" y="273" as="sourcePoint"/><mxPoint x="262" y="223" as="targetPoint"/></mxGeometry></mxCell><mxCell id="15" style="edgeStyle=orthogonalEdgeStyle;rounded=0;orthogonalLoop=1;jettySize=auto;html=1;exitX=1;exitY=0.5;exitDx=0;exitDy=0;entryX=0;entryY=0.5;entryDx=0;entryDy=0;" edge="1" parent="1" source="12" target="14"><mxGeometry relative="1" as="geometry"/></mxCell><mxCell id="12" value="creating amout of array according amount of backets" style="rounded=1;whiteSpace=wrap;html=1;fillColor=#4D4D4D;" vertex="1" parent="1"><mxGeometry x="128" y="131" width="104" height="52" as="geometry"/></mxCell><mxCell id="13" value="" style="endArrow=classic;html=1;rounded=0;exitX=1;exitY=0.5;exitDx=0;exitDy=0;entryX=0;entryY=0.5;entryDx=0;entryDy=0;" edge="1" parent="1" source="10" target="12"><mxGeometry width="50" height="50" relative="1" as="geometry"><mxPoint x="212" y="258" as="sourcePoint"/><mxPoint x="262" y="208" as="targetPoint"/></mxGeometry></mxCell><mxCell id="14" value="put numbers according there size in a backets" style="rounded=1;whiteSpace=wrap;html=1;fillColor=#4D4D4D;" vertex="1" parent="1"><mxGeometry x="287" y="134" width="120" height="46" as="geometry"/></mxCell><mxCell id="16" value="sorting each bucket" style="rounded=1;whiteSpace=wrap;html=1;fillColor=#4D4D4D;" vertex="1" parent="1"><mxGeometry x="-30" y="232" width="120" height="22" as="geometry"/></mxCell><mxCell id="17" value="void sorted array" style="shape=parallelogram;perimeter=parallelogramPerimeter;whiteSpace=wrap;html=1;fixedSize=1;fillColor=#4D4D4D;" vertex="1" parent="1"><mxGeometry x="135" y="230" width="120" height="28" as="geometry"/></mxCell><mxCell id="18" value="" style="endArrow=classic;html=1;rounded=0;exitX=1;exitY=0.5;exitDx=0;exitDy=0;entryX=0;entryY=0.5;entryDx=0;entryDy=0;" edge="1" parent="1" source="16" target="17"><mxGeometry width="50" height="50" relative="1" as="geometry"><mxPoint x="65" y="341" as="sourcePoint"/><mxPoint x="115" y="291" as="targetPoint"/></mxGeometry></mxCell><mxCell id="19" value="" style="endArrow=classic;html=1;rounded=0;exitX=1;exitY=0.5;exitDx=0;exitDy=0;" edge="1" parent="1" source="17" target="3"><mxGeometry width="50" height="50" relative="1" as="geometry"><mxPoint x="200" y="244" as="sourcePoint"/><mxPoint x="250" y="194" as="targetPoint"/></mxGeometry></mxCell></root></mxGraphModel></diagram></mxfile>